
<svg width="512" height="512" viewBox="0 0 512 512" xmlns="http://www.w3.org/2000/svg">
  <defs>
    <linearGradient id="grad1" x1="0%" y1="0%" x2="100%" y2="100%">
      <stop offset="0%" style="stop-color:#667eea;stop-opacity:1" />
      <stop offset="100%" style="stop-color:#764ba2;stop-opacity:1" />
    </linearGradient>
  </defs>
  
  <!-- پس‌زمینه -->
  <rect width="512" height="512" rx="80" fill="url(#grad1)"/>
  
  <!-- تاج امپراطوری -->
  <g transform="translate(256,256)">
    <!-- قاعده تاج -->
    <rect x="-120" y="80" width="240" height="20" fill="#FFD700" rx="10"/>
    
    <!-- بدنه تاج -->
    <path d="M-100 20 L-80 80 L80 80 L100 20 L80 -20 L60 0 L40 -30 L20 10 L0 -40 L-20 10 L-40 -30 L-60 0 L-80 -20 Z" 
          fill="#FFD700" stroke="#FFA500" stroke-width="2"/>
    
    <!-- جواهرات -->
    <circle cx="0" cy="-10" r="12" fill="#FF4444"/>
    <circle cx="-40" cy="10" r="8" fill="#44FF44"/>
    <circle cx="40" cy="10" r="8" fill="#4444FF"/>
    <circle cx="-20" cy="30" r="6" fill="#FF44FF"/>
    <circle cx="20" cy="30" r="6" fill="#44FFFF"/>
    
    <!-- متن فارسی -->
    <text x="0" y="150" text-anchor="middle" fill="white" font-family="serif" font-size="36" font-weight="bold">
      ایران
    </text>
    <text x="0" y="180" text-anchor="middle" fill="white" font-family="serif" font-size="24">
      ۲۰۲۷
    </text>
  </g>
</svg>
